<svg xmlns="http://www.w3.org/2000/svg" version="1.1" xmlns:xlink="http://www.w3.org/1999/xlink" xmlns:svgjs="http://svgjs.com/svgjs" width="1440" height="560" preserveAspectRatio="none" viewBox="0 0 1440 560"><g mask="url(&quot;#SvgjsMask1002&quot;)" fill="none"><rect width="1440" height="560" x="0" y="0" fill="#0e2a47"></rect><path d="M136.06 60.13L201.02 97.63L201.02 172.63L136.06 210.13L71.11 172.63L71.11 97.63zM136.06 285.13L201.02 322.63L201.02 397.63L136.06 435.13L71.11 397.63L71.11 322.63zM201.02 172.63L265.97 210.13L265.97 285.13L201.02 322.63L136.06 285.13L136.06 210.13zM395.88 60.13L460.83 97.63L460.83 172.63L395.88 210.13L330.93 172.63L330.93 97.63zM395.88 285.13L460.83 322.63L460.83 397.63L395.88 435.13L330.93 397.63L330.93 322.63zM395.88 510.13L460.83 547.63L460.83 622.63L395.88 660.13L330.93 622.63L330.93 547.63zM525.79 60.13L590.74 97.63L590.74 172.63L525.79 210.13L460.83 172.63L460.83 97.63zM590.74 -52.37L655.69 -14.87L655.69 60.13L590.74 97.63L525.79 60.13L525.79 -14.87zM590.74 397.63L655.69 435.13L655.69 510.13L590.74 547.63L525.79 510.13L525.79 435.13zM720.65 -52.37L785.6 -14.87L785.6 60.13L720.65 97.63L655.69 60.13L655.69 -14.87zM720.65 397.63L785.6 435.13L785.6 510.13L720.65 547.63L655.69 510.13L655.69 435.13zM915.51 60.13L980.46 97.63L980.46 172.63L915.51 210.13L850.55 172.63L850.55 97.63zM915.51 285.13L980.46 322.63L980.46 397.63L915.51 435.13L850.55 397.63L850.55 322.63zM850.55 397.63L915.51 435.13L915.51 510.13L850.55 547.63L785.6 510.13L785.6 435.13zM915.51 510.13L980.46 547.63L980.46 622.63L915.51 660.13L850.55 622.63L850.55 547.63zM980.46 -52.37L1045.42 -14.87L1045.42 60.13L980.46 97.63L915.51 60.13L915.51 -14.87zM1045.42 285.13L1110.37 322.63L1110.37 397.63L1045.42 435.13L980.46 397.63L980.46 322.63zM1045.42 510.13L1110.37 547.63L1110.37 622.63L1045.42 660.13L980.46 622.63L980.46 547.63zM1110.37 -52.37L1175.32 -14.87L1175.32 60.13L1110.37 97.63L1045.42 60.13L1045.42 -14.87zM1175.32 510.13L1240.28 547.63L1240.28 622.63L1175.32 660.13L1110.37 622.63L1110.37 547.63zM1240.28 -52.37L1305.23 -14.87L1305.23 60.13L1240.28 97.63L1175.32 60.13L1175.32 -14.87zM1240.28 397.63L1305.23 435.13L1305.23 510.13L1240.28 547.63L1175.32 510.13L1175.32 435.13zM1370.18 -52.37L1435.14 -14.87L1435.14 60.13L1370.18 97.63L1305.23 60.13L1305.23 -14.87zM1370.18 172.63L1435.14 210.13L1435.14 285.13L1370.18 322.63L1305.23 285.13L1305.23 210.13zM1370.18 397.63L1435.14 435.13L1435.14 510.13L1370.18 547.63L1305.23 510.13L1305.23 435.13zM1435.14 510.13L1500.09 547.63L1500.09 622.63L1435.14 660.13L1370.18 622.63L1370.18 547.63zM1500.09 397.63L1565.05 435.13L1565.05 510.13L1500.09 547.63L1435.14 510.13L1435.14 435.13z" stroke="#03305d" stroke-width="2"></path><path d="M128.56 60.13 a7.5 7.5 0 1 0 15 0 a7.5 7.5 0 1 0 -15 0zM193.52 97.63 a7.5 7.5 0 1 0 15 0 a7.5 7.5 0 1 0 -15 0zM193.52 172.63 a7.5 7.5 0 1 0 15 0 a7.5 7.5 0 1 0 -15 0zM128.56 210.13 a7.5 7.5 0 1 0 15 0 a7.5 7.5 0 1 0 -15 0zM63.61 172.63 a7.5 7.5 0 1 0 15 0 a7.5 7.5 0 1 0 -15 0zM63.61 97.63 a7.5 7.5 0 1 0 15 0 a7.5 7.5 0 1 0 -15 0zM128.56 285.13 a7.5 7.5 0 1 0 15 0 a7.5 7.5 0 1 0 -15 0zM193.52 322.63 a7.5 7.5 0 1 0 15 0 a7.5 7.5 0 1 0 -15 0zM193.52 397.63 a7.5 7.5 0 1 0 15 0 a7.5 7.5 0 1 0 -15 0zM128.56 435.13 a7.5 7.5 0 1 0 15 0 a7.5 7.5 0 1 0 -15 0zM63.61 397.63 a7.5 7.5 0 1 0 15 0 a7.5 7.5 0 1 0 -15 0zM63.61 322.63 a7.5 7.5 0 1 0 15 0 a7.5 7.5 0 1 0 -15 0zM258.47 210.13 a7.5 7.5 0 1 0 15 0 a7.5 7.5 0 1 0 -15 0zM258.47 285.13 a7.5 7.5 0 1 0 15 0 a7.5 7.5 0 1 0 -15 0zM388.38 60.13 a7.5 7.5 0 1 0 15 0 a7.5 7.5 0 1 0 -15 0zM453.33 97.63 a7.5 7.5 0 1 0 15 0 a7.5 7.5 0 1 0 -15 0zM453.33 172.63 a7.5 7.5 0 1 0 15 0 a7.5 7.5 0 1 0 -15 0zM388.38 210.13 a7.5 7.5 0 1 0 15 0 a7.5 7.5 0 1 0 -15 0zM323.43 172.63 a7.5 7.5 0 1 0 15 0 a7.5 7.5 0 1 0 -15 0zM323.43 97.63 a7.5 7.5 0 1 0 15 0 a7.5 7.5 0 1 0 -15 0zM388.38 285.13 a7.5 7.5 0 1 0 15 0 a7.5 7.5 0 1 0 -15 0zM453.33 322.63 a7.5 7.5 0 1 0 15 0 a7.5 7.5 0 1 0 -15 0zM453.33 397.63 a7.5 7.5 0 1 0 15 0 a7.5 7.5 0 1 0 -15 0zM388.38 435.13 a7.5 7.5 0 1 0 15 0 a7.5 7.5 0 1 0 -15 0zM323.43 397.63 a7.5 7.5 0 1 0 15 0 a7.5 7.5 0 1 0 -15 0zM323.43 322.63 a7.5 7.5 0 1 0 15 0 a7.5 7.5 0 1 0 -15 0zM388.38 510.13 a7.5 7.5 0 1 0 15 0 a7.5 7.5 0 1 0 -15 0zM453.33 547.63 a7.5 7.5 0 1 0 15 0 a7.5 7.5 0 1 0 -15 0zM453.33 622.63 a7.5 7.5 0 1 0 15 0 a7.5 7.5 0 1 0 -15 0zM388.38 660.13 a7.5 7.5 0 1 0 15 0 a7.5 7.5 0 1 0 -15 0zM323.43 622.63 a7.5 7.5 0 1 0 15 0 a7.5 7.5 0 1 0 -15 0zM323.43 547.63 a7.5 7.5 0 1 0 15 0 a7.5 7.5 0 1 0 -15 0zM518.29 60.13 a7.5 7.5 0 1 0 15 0 a7.5 7.5 0 1 0 -15 0zM583.24 97.63 a7.5 7.5 0 1 0 15 0 a7.5 7.5 0 1 0 -15 0zM583.24 172.63 a7.5 7.5 0 1 0 15 0 a7.5 7.5 0 1 0 -15 0zM518.29 210.13 a7.5 7.5 0 1 0 15 0 a7.5 7.5 0 1 0 -15 0zM583.24 -52.37 a7.5 7.5 0 1 0 15 0 a7.5 7.5 0 1 0 -15 0zM648.19 -14.87 a7.5 7.5 0 1 0 15 0 a7.5 7.5 0 1 0 -15 0zM648.19 60.13 a7.5 7.5 0 1 0 15 0 a7.5 7.5 0 1 0 -15 0zM518.29 -14.87 a7.5 7.5 0 1 0 15 0 a7.5 7.5 0 1 0 -15 0zM583.24 397.63 a7.5 7.5 0 1 0 15 0 a7.5 7.5 0 1 0 -15 0zM648.19 435.13 a7.5 7.5 0 1 0 15 0 a7.5 7.5 0 1 0 -15 0zM648.19 510.13 a7.5 7.5 0 1 0 15 0 a7.5 7.5 0 1 0 -15 0zM583.24 547.63 a7.5 7.5 0 1 0 15 0 a7.5 7.5 0 1 0 -15 0zM518.29 510.13 a7.5 7.5 0 1 0 15 0 a7.5 7.5 0 1 0 -15 0zM518.29 435.13 a7.5 7.5 0 1 0 15 0 a7.5 7.5 0 1 0 -15 0zM713.15 -52.37 a7.5 7.5 0 1 0 15 0 a7.5 7.5 0 1 0 -15 0zM778.1 -14.87 a7.5 7.5 0 1 0 15 0 a7.5 7.5 0 1 0 -15 0zM778.1 60.13 a7.5 7.5 0 1 0 15 0 a7.5 7.5 0 1 0 -15 0zM713.15 97.63 a7.5 7.5 0 1 0 15 0 a7.5 7.5 0 1 0 -15 0zM713.15 397.63 a7.5 7.5 0 1 0 15 0 a7.5 7.5 0 1 0 -15 0zM778.1 435.13 a7.5 7.5 0 1 0 15 0 a7.5 7.5 0 1 0 -15 0zM778.1 510.13 a7.5 7.5 0 1 0 15 0 a7.5 7.5 0 1 0 -15 0zM713.15 547.63 a7.5 7.5 0 1 0 15 0 a7.5 7.5 0 1 0 -15 0zM908.01 60.13 a7.5 7.5 0 1 0 15 0 a7.5 7.5 0 1 0 -15 0zM972.96 97.63 a7.5 7.5 0 1 0 15 0 a7.5 7.5 0 1 0 -15 0zM972.96 172.63 a7.5 7.5 0 1 0 15 0 a7.5 7.5 0 1 0 -15 0zM908.01 210.13 a7.5 7.5 0 1 0 15 0 a7.5 7.5 0 1 0 -15 0zM843.05 172.63 a7.5 7.5 0 1 0 15 0 a7.5 7.5 0 1 0 -15 0zM843.05 97.63 a7.5 7.5 0 1 0 15 0 a7.5 7.5 0 1 0 -15 0zM908.01 285.13 a7.5 7.5 0 1 0 15 0 a7.5 7.5 0 1 0 -15 0zM972.96 322.63 a7.5 7.5 0 1 0 15 0 a7.5 7.5 0 1 0 -15 0zM972.96 397.63 a7.5 7.5 0 1 0 15 0 a7.5 7.5 0 1 0 -15 0zM908.01 435.13 a7.5 7.5 0 1 0 15 0 a7.5 7.5 0 1 0 -15 0zM843.05 397.63 a7.5 7.5 0 1 0 15 0 a7.5 7.5 0 1 0 -15 0zM843.05 322.63 a7.5 7.5 0 1 0 15 0 a7.5 7.5 0 1 0 -15 0zM908.01 510.13 a7.5 7.5 0 1 0 15 0 a7.5 7.5 0 1 0 -15 0zM843.05 547.63 a7.5 7.5 0 1 0 15 0 a7.5 7.5 0 1 0 -15 0zM972.96 547.63 a7.5 7.5 0 1 0 15 0 a7.5 7.5 0 1 0 -15 0zM972.96 622.63 a7.5 7.5 0 1 0 15 0 a7.5 7.5 0 1 0 -15 0zM908.01 660.13 a7.5 7.5 0 1 0 15 0 a7.5 7.5 0 1 0 -15 0zM843.05 622.63 a7.5 7.5 0 1 0 15 0 a7.5 7.5 0 1 0 -15 0zM972.96 -52.37 a7.5 7.5 0 1 0 15 0 a7.5 7.5 0 1 0 -15 0zM1037.92 -14.87 a7.5 7.5 0 1 0 15 0 a7.5 7.5 0 1 0 -15 0zM1037.92 60.13 a7.5 7.5 0 1 0 15 0 a7.5 7.5 0 1 0 -15 0zM908.01 -14.87 a7.5 7.5 0 1 0 15 0 a7.5 7.5 0 1 0 -15 0zM1037.92 285.13 a7.5 7.5 0 1 0 15 0 a7.5 7.5 0 1 0 -15 0zM1102.87 322.63 a7.5 7.5 0 1 0 15 0 a7.5 7.5 0 1 0 -15 0zM1102.87 397.63 a7.5 7.5 0 1 0 15 0 a7.5 7.5 0 1 0 -15 0zM1037.92 435.13 a7.5 7.5 0 1 0 15 0 a7.5 7.5 0 1 0 -15 0zM1037.92 510.13 a7.5 7.5 0 1 0 15 0 a7.5 7.5 0 1 0 -15 0zM1102.87 547.63 a7.5 7.5 0 1 0 15 0 a7.5 7.5 0 1 0 -15 0zM1102.87 622.63 a7.5 7.5 0 1 0 15 0 a7.5 7.5 0 1 0 -15 0zM1037.92 660.13 a7.5 7.5 0 1 0 15 0 a7.5 7.5 0 1 0 -15 0zM1102.87 -52.37 a7.5 7.5 0 1 0 15 0 a7.5 7.5 0 1 0 -15 0zM1167.82 -14.87 a7.5 7.5 0 1 0 15 0 a7.5 7.5 0 1 0 -15 0zM1167.82 60.13 a7.5 7.5 0 1 0 15 0 a7.5 7.5 0 1 0 -15 0zM1102.87 97.63 a7.5 7.5 0 1 0 15 0 a7.5 7.5 0 1 0 -15 0zM1167.82 510.13 a7.5 7.5 0 1 0 15 0 a7.5 7.5 0 1 0 -15 0zM1232.78 547.63 a7.5 7.5 0 1 0 15 0 a7.5 7.5 0 1 0 -15 0zM1232.78 622.63 a7.5 7.5 0 1 0 15 0 a7.5 7.5 0 1 0 -15 0zM1167.82 660.13 a7.5 7.5 0 1 0 15 0 a7.5 7.5 0 1 0 -15 0zM1232.78 -52.37 a7.5 7.5 0 1 0 15 0 a7.5 7.5 0 1 0 -15 0zM1297.73 -14.87 a7.5 7.5 0 1 0 15 0 a7.5 7.5 0 1 0 -15 0zM1297.73 60.13 a7.5 7.5 0 1 0 15 0 a7.5 7.5 0 1 0 -15 0zM1232.78 97.63 a7.5 7.5 0 1 0 15 0 a7.5 7.5 0 1 0 -15 0zM1232.78 397.63 a7.5 7.5 0 1 0 15 0 a7.5 7.5 0 1 0 -15 0zM1297.73 435.13 a7.5 7.5 0 1 0 15 0 a7.5 7.5 0 1 0 -15 0zM1297.73 510.13 a7.5 7.5 0 1 0 15 0 a7.5 7.5 0 1 0 -15 0zM1167.82 435.13 a7.5 7.5 0 1 0 15 0 a7.5 7.5 0 1 0 -15 0zM1362.68 -52.37 a7.5 7.5 0 1 0 15 0 a7.5 7.5 0 1 0 -15 0zM1427.64 -14.87 a7.5 7.5 0 1 0 15 0 a7.5 7.5 0 1 0 -15 0zM1427.64 60.13 a7.5 7.5 0 1 0 15 0 a7.5 7.5 0 1 0 -15 0zM1362.68 97.63 a7.5 7.5 0 1 0 15 0 a7.5 7.5 0 1 0 -15 0zM1362.68 172.63 a7.5 7.5 0 1 0 15 0 a7.5 7.5 0 1 0 -15 0zM1427.64 210.13 a7.5 7.5 0 1 0 15 0 a7.5 7.5 0 1 0 -15 0zM1427.64 285.13 a7.5 7.5 0 1 0 15 0 a7.5 7.5 0 1 0 -15 0zM1362.68 322.63 a7.5 7.5 0 1 0 15 0 a7.5 7.5 0 1 0 -15 0zM1297.73 285.13 a7.5 7.5 0 1 0 15 0 a7.5 7.5 0 1 0 -15 0zM1297.73 210.13 a7.5 7.5 0 1 0 15 0 a7.5 7.5 0 1 0 -15 0zM1362.68 397.63 a7.5 7.5 0 1 0 15 0 a7.5 7.5 0 1 0 -15 0zM1427.64 435.13 a7.5 7.5 0 1 0 15 0 a7.5 7.5 0 1 0 -15 0zM1427.64 510.13 a7.5 7.5 0 1 0 15 0 a7.5 7.5 0 1 0 -15 0zM1362.68 547.63 a7.5 7.5 0 1 0 15 0 a7.5 7.5 0 1 0 -15 0zM1492.59 547.63 a7.5 7.5 0 1 0 15 0 a7.5 7.5 0 1 0 -15 0zM1492.59 622.63 a7.5 7.5 0 1 0 15 0 a7.5 7.5 0 1 0 -15 0zM1427.64 660.13 a7.5 7.5 0 1 0 15 0 a7.5 7.5 0 1 0 -15 0zM1362.68 622.63 a7.5 7.5 0 1 0 15 0 a7.5 7.5 0 1 0 -15 0zM1492.59 397.63 a7.5 7.5 0 1 0 15 0 a7.5 7.5 0 1 0 -15 0zM1557.55 435.13 a7.5 7.5 0 1 0 15 0 a7.5 7.5 0 1 0 -15 0zM1557.55 510.13 a7.5 7.5 0 1 0 15 0 a7.5 7.5 0 1 0 -15 0z" fill="#03305d"></path><path d="M42.15 -30.43L88.05 -3.93L88.05 49.07L42.15 75.57L-3.75 49.07L-3.75 -3.93zM88.05 49.07L133.95 75.57L133.95 128.57L88.05 155.07L42.15 128.57L42.15 75.57zM88.05 526.07L133.95 552.57L133.95 605.57L88.05 632.07L42.15 605.57L42.15 552.57zM179.85 49.07L225.75 75.57L225.75 128.57L179.85 155.07L133.95 128.57L133.95 75.57zM179.85 208.07L225.75 234.57L225.75 287.57L179.85 314.07L133.95 287.57L133.95 234.57zM179.85 367.07L225.75 393.57L225.75 446.57L179.85 473.07L133.95 446.57L133.95 393.57zM179.85 526.07L225.75 552.57L225.75 605.57L179.85 632.07L133.95 605.57L133.95 552.57zM271.65 49.07L317.55 75.57L317.55 128.57L271.65 155.07L225.75 128.57L225.75 75.57zM225.75 128.57L271.65 155.07L271.65 208.07L225.75 234.57L179.85 208.07L179.85 155.07zM271.65 208.07L317.55 234.57L317.55 287.57L271.65 314.07L225.75 287.57L225.75 234.57zM225.75 287.57L271.65 314.07L271.65 367.07L225.75 393.57L179.85 367.07L179.85 314.07zM225.75 446.57L271.65 473.07L271.65 526.07L225.75 552.57L179.85 526.07L179.85 473.07zM271.65 526.07L317.55 552.57L317.55 605.57L271.65 632.07L225.75 605.57L225.75 552.57zM317.55 128.57L363.45 155.07L363.45 208.07L317.55 234.57L271.65 208.07L271.65 155.07zM363.45 367.07L409.36 393.57L409.36 446.57L363.45 473.07L317.55 446.57L317.55 393.57zM317.55 446.57L363.45 473.07L363.45 526.07L317.55 552.57L271.65 526.07L271.65 473.07zM455.26 367.07L501.16 393.57L501.16 446.57L455.26 473.07L409.36 446.57L409.36 393.57zM501.16 128.57L547.06 155.07L547.06 208.07L501.16 234.57L455.26 208.07L455.26 155.07zM547.06 526.07L592.96 552.57L592.96 605.57L547.06 632.07L501.16 605.57L501.16 552.57zM592.96 128.57L638.86 155.07L638.86 208.07L592.96 234.57L547.06 208.07L547.06 155.07zM592.96 287.57L638.86 314.07L638.86 367.07L592.96 393.57L547.06 367.07L547.06 314.07zM638.86 367.07L684.76 393.57L684.76 446.57L638.86 473.07L592.96 446.57L592.96 393.57zM592.96 446.57L638.86 473.07L638.86 526.07L592.96 552.57L547.06 526.07L547.06 473.07zM684.76 -30.43L730.66 -3.93L730.66 49.07L684.76 75.57L638.86 49.07L638.86 -3.93zM730.66 208.07L776.56 234.57L776.56 287.57L730.66 314.07L684.76 287.57L684.76 234.57zM730.66 367.07L776.56 393.57L776.56 446.57L730.66 473.07L684.76 446.57L684.76 393.57zM730.66 526.07L776.56 552.57L776.56 605.57L730.66 632.07L684.76 605.57L684.76 552.57zM822.46 49.07L868.36 75.57L868.36 128.57L822.46 155.07L776.56 128.57L776.56 75.57zM822.46 208.07L868.36 234.57L868.36 287.57L822.46 314.07L776.56 287.57L776.56 234.57zM776.56 287.57L822.46 314.07L822.46 367.07L776.56 393.57L730.66 367.07L730.66 314.07zM822.46 367.07L868.36 393.57L868.36 446.57L822.46 473.07L776.56 446.57L776.56 393.57zM776.56 446.57L822.46 473.07L822.46 526.07L776.56 552.57L730.66 526.07L730.66 473.07zM822.46 526.07L868.36 552.57L868.36 605.57L822.46 632.07L776.56 605.57L776.56 552.57zM868.36 -30.43L914.26 -3.93L914.26 49.07L868.36 75.57L822.46 49.07L822.46 -3.93zM868.36 128.57L914.26 155.07L914.26 208.07L868.36 234.57L822.46 208.07L822.46 155.07zM914.26 367.07L960.16 393.57L960.16 446.57L914.26 473.07L868.36 446.57L868.36 393.57zM914.26 526.07L960.16 552.57L960.16 605.57L914.26 632.07L868.36 605.57L868.36 552.57zM960.16 -30.43L1006.06 -3.93L1006.06 49.07L960.16 75.57L914.26 49.07L914.26 -3.93zM1006.06 49.07L1051.96 75.57L1051.96 128.57L1006.06 155.07L960.16 128.57L960.16 75.57zM960.16 128.57L1006.06 155.07L1006.06 208.07L960.16 234.57L914.26 208.07L914.26 155.07zM960.16 287.57L1006.06 314.07L1006.06 367.07L960.16 393.57L914.26 367.07L914.26 314.07zM960.16 446.57L1006.06 473.07L1006.06 526.07L960.16 552.57L914.26 526.07L914.26 473.07zM1006.06 526.07L1051.96 552.57L1051.96 605.57L1006.06 632.07L960.16 605.57L960.16 552.57zM1051.96 -30.43L1097.86 -3.93L1097.86 49.07L1051.96 75.57L1006.06 49.07L1006.06 -3.93zM1097.86 49.07L1143.77 75.57L1143.77 128.57L1097.86 155.07L1051.96 128.57L1051.96 75.57zM1051.96 128.57L1097.86 155.07L1097.86 208.07L1051.96 234.57L1006.06 208.07L1006.06 155.07zM1097.86 208.07L1143.77 234.57L1143.77 287.57L1097.86 314.07L1051.96 287.57L1051.96 234.57zM1143.77 -30.43L1189.67 -3.93L1189.67 49.07L1143.77 75.57L1097.86 49.07L1097.86 -3.93zM1235.57 -30.43L1281.47 -3.93L1281.47 49.07L1235.57 75.57L1189.67 49.07L1189.67 -3.93zM1235.57 128.57L1281.47 155.07L1281.47 208.07L1235.57 234.57L1189.67 208.07L1189.67 155.07zM1281.47 208.07L1327.37 234.57L1327.37 287.57L1281.47 314.07L1235.57 287.57L1235.57 234.57zM1281.47 367.07L1327.37 393.57L1327.37 446.57L1281.47 473.07L1235.57 446.57L1235.57 393.57zM1281.47 526.07L1327.37 552.57L1327.37 605.57L1281.47 632.07L1235.57 605.57L1235.57 552.57zM1373.27 208.07L1419.17 234.57L1419.17 287.57L1373.27 314.07L1327.37 287.57L1327.37 234.57zM1327.37 446.57L1373.27 473.07L1373.27 526.07L1327.37 552.57L1281.47 526.07L1281.47 473.07zM1465.07 367.07L1510.97 393.57L1510.97 446.57L1465.07 473.07L1419.17 446.57L1419.17 393.57zM1419.17 446.57L1465.07 473.07L1465.07 526.07L1419.17 552.57L1373.27 526.07L1373.27 473.07zM1465.07 526.07L1510.97 552.57L1510.97 605.57L1465.07 632.07L1419.17 605.57L1419.17 552.57z" stroke="url(#SvgjsLinearGradient1003)" stroke-width="2"></path></g><defs><mask id="SvgjsMask1002"><rect width="1440" height="560" fill="#ffffff"></rect></mask><linearGradient x1="220.03199999999998" y1="-220.02399999999997" x2="1219.9679999999998" y2="780.024" gradientUnits="userSpaceOnUse" id="SvgjsLinearGradient1003"><stop stop-color="#0e2a47" offset="0"></stop><stop stop-color="rgba(12, 105, 225, 1)" offset="0.53"></stop><stop stop-color="rgba(12, 105, 225, 1)" offset="0.93"></stop><stop stop-color="rgba(12, 105, 225, 1)" offset="1"></stop></linearGradient></defs></svg>